<svg xmlns="http://www.w3.org/2000/svg" viewBox="0 0 118.03 38.23"><defs><style>.cls-1{fill:#004b90;}.cls-2{fill:#13ae67;}.cls-3{fill:#f4cf41;}.cls-4{fill:#c8161d;}.cls-5{fill:#004f99;}</style></defs><title>资源 1</title><g id="图层_2" data-name="图层 2"><g id="图层_1-2" data-name="图层 1"><path class="cls-1" d="M58,26.93a2.79,2.79,0,0,1,1,.19,2.76,2.76,0,0,1,.85.48l1.48,1.26a2.57,2.57,0,0,1,.64.87,2.49,2.49,0,0,1,.25,1.05v1.72a1.21,1.21,0,0,1-.38.91,1.27,1.27,0,0,1-.92.37H49.8v.45l.24.21.48.39c.17.14.4.33.68.58a.45.45,0,0,0,.19,0H58a.48.48,0,0,0,.2,0l0-.06,1.14-.81a1.24,1.24,0,0,1,1-.24,1.3,1.3,0,0,1,.84.53,1.24,1.24,0,0,1,.23,1,1.27,1.27,0,0,1-.53.84l-1.11.81,0,0,.05,0a3,3,0,0,1-.86.47,2.82,2.82,0,0,1-1,.17H51.38a2.83,2.83,0,0,1-1-.17,3,3,0,0,1-.86-.47L48.1,36.18a2.32,2.32,0,0,1-.65-.88,2.56,2.56,0,0,1-.23-1V30.63a2.62,2.62,0,0,1,.91-1.93l1.45-1.13a2.6,2.6,0,0,1,.85-.47,3,3,0,0,1,1-.17ZM51.4,29.52l-.11,0-.11.05-.67.54-.47.37-.24.2v.49h9.84v-.37l0,0-.25-.21-.48-.41-.47-.41a1.15,1.15,0,0,0-.23-.19.24.24,0,0,0-.17-.08Z"/><path class="cls-1" d="M79.94,29.26a2.27,2.27,0,0,1,.28,1.07v6.44a1.21,1.21,0,0,1-.38.91,1.27,1.27,0,0,1-.92.37,1.27,1.27,0,0,1-1.28-1.28V30.44a2.33,2.33,0,0,1-.3-.21L77.08,30,76.53,30c-.29,0-.8,0-1.54,0h-7.2v6.86a1.22,1.22,0,0,1-.38.91,1.29,1.29,0,0,1-.93.37,1.27,1.27,0,0,1-1.28-1.28V28.24a1.27,1.27,0,0,1,.37-.94,1.24,1.24,0,0,1,.91-.37,1.15,1.15,0,0,1,.91.4H75c.54,0,1,0,1.39,0a7.9,7.9,0,0,1,1,.1,4.22,4.22,0,0,1,.7.19,2,2,0,0,1,.51.29l.64.49A2.63,2.63,0,0,1,79.94,29.26Z"/><path class="cls-1" d="M88.67,36.39a2.11,2.11,0,0,1-.44.66,2.16,2.16,0,0,1-.65.44A2.07,2.07,0,0,1,85.32,37a2,2,0,0,1-.6-1.47,1.94,1.94,0,0,1,.16-.79,2.07,2.07,0,0,1,.44-.65,2.17,2.17,0,0,1,.66-.44,2,2,0,0,1,.82-.16,2.06,2.06,0,0,1,1.88,2.86Z"/><path class="cls-1" d="M95.48,38.06a1.56,1.56,0,0,1-1.65-1.46V23.71a1.47,1.47,0,0,1,1.05-1.36,1.8,1.8,0,0,1,1.82.37l10.12,9.71V23.59a1.67,1.67,0,0,1,3.31,0V36.17a1.47,1.47,0,0,1-1.06,1.36,1.81,1.81,0,0,1-1.82-.37L97.14,27.45V36.6A1.56,1.56,0,0,1,95.48,38.06Z"/><path class="cls-1" d="M109.38,6.34a1.7,1.7,0,0,1-1.25.39H93.8V4.58h16V5.3A1.39,1.39,0,0,1,109.38,6.34Zm-16,10.59,2-4.56H92.77V10.22h18V11.4a1,1,0,0,1-.3.65,1.4,1.4,0,0,1-.95.31H98.16L96.5,16.19s-.34.6-.05,1a1.35,1.35,0,0,0,.94.51h9.75c.2,0,.31-.09.31-.27v-.66s-.07-1.14.64-1.5a4.08,4.08,0,0,1,1.36-.33h.69v3.23q0,1.55-1.77,1.55H95.89a3.93,3.93,0,0,1-2.22-.64A2.1,2.1,0,0,1,93.37,16.93Z"/><polygon class="cls-1" points="53.63 2.8 51.27 2.8 51.27 4.32 47.26 4.32 47.26 5.82 57.64 5.82 57.64 4.32 53.63 4.32 53.63 2.8"/><path class="cls-1" d="M61.77,5.81h5V4.32h-6a2.38,2.38,0,0,0-2.36,2.46V19.5h1s1.38,0,1.38-1.79v-7.4H62.7V19.5h2.36V10.31h1.69V8.81h-6V6.67C60.75,5.74,61.77,5.81,61.77,5.81Z"/><path class="cls-1" d="M57.64,10.31V8.81H55.77l.68-2.43H55.27a1.26,1.26,0,0,0-1.21.89l-.43,1.54H51.27l-.43-1.54a1.27,1.27,0,0,0-1.22-.89H48.44l.67,2.43H47.26v1.49h4V12h-4v1.5h1l-1,6h1a1.26,1.26,0,0,0,1.18-1.07l.81-4.94h1v6h1s1.38,0,1.38-1.79V13.5h1l.81,4.94A1.25,1.25,0,0,0,56.6,19.5h1l-1-6h1V12h-4V10.31Z"/><path class="cls-1" d="M81.09,4.21v6.94H87A2.2,2.2,0,0,0,89.44,9V4.21Zm6,4.45a1,1,0,0,1-1.17,1H83.45V5.71h3.64Z"/><path class="cls-1" d="M71.64,11.9v7.49H85.05a2.39,2.39,0,0,0,2.71-2.28V11.9ZM85.4,17s0,.93-1.18.93H74V16.4H85.4Zm0-2.07H74V13.4H85.4Z"/><path class="cls-1" d="M80.35,7.21h-4V5.71h3.51V4.21H72.53l.42-1.52H71.76a1.26,1.26,0,0,0-1.21.89L70,5.71h4v1.5H70v1.5h2.67l-2.44,2.44h2.53l2.44-2.44,2.45,2.44h2.52L77.68,8.71h2.67Z"/><path class="cls-2" d="M19.11,0A19.11,19.11,0,0,0,0,19.11H19.11Z"/><circle class="cls-3" cx="28.67" cy="9.56" r="9.56"/><rect class="cls-4" x="19.11" y="19.11" width="19.12" height="19.11"/><path class="cls-5" d="M6.37,19.11H0A19.11,19.11,0,0,0,19.11,38.23V31.86A12.74,12.74,0,0,1,6.37,19.11Z"/><path class="cls-5" d="M113.91.78h-1.07V3.68h-.59V.78h-1.05V.25h2.71ZM118,3.68h-.59V1.23h0l-1.1,2.45H116L114.9,1.23h0V3.68h-.56V.25H115l1.13,2.55h0L117.33.25h.7Z"/></g></g></svg>