<?xml version="1.0" encoding="utf-8"?>
<!-- Generator: Adobe Illustrator 19.0.0, SVG Export Plug-In . SVG Version: 6.00 Build 0)  -->
<svg xmlns="http://www.w3.org/2000/svg" viewBox="0 0 180.11 62.14"><defs><style>.cls-1{fill:#004b90;}.cls-2{fill:#13ae67;}.cls-3{fill:#f4cf41;}.cls-4{fill:#c8161d;}.cls-5{fill:#004f99;}</style></defs><title>资源 1</title><g id="图层_2" data-name="图层 2"><g id="图层_1-2" data-name="图层 1"><path class="cls-1" d="M94.35,43.78a4.53,4.53,0,0,1,1.58.3,4.49,4.49,0,0,1,1.38.78l2.4,2a4.17,4.17,0,0,1,1,1.42,4.05,4.05,0,0,1,.4,1.71v2.8a2,2,0,0,1-.62,1.49,2.06,2.06,0,0,1-1.5.6H81v.73l.4.34.78.64c.28.23.65.54,1.11.95a.74.74,0,0,0,.32.08H94.31a.77.77,0,0,0,.32-.08l.08-.09,1.85-1.31a2,2,0,0,1,1.56-.39,2.11,2.11,0,0,1,1.36.87,2,2,0,0,1,.38,1.56A2.06,2.06,0,0,1,99,59.58l-1.81,1.32,0,0a.11.11,0,0,0,.08,0,4.8,4.8,0,0,1-1.4.76,4.58,4.58,0,0,1-1.56.28H83.52A4.6,4.6,0,0,1,82,61.59a4.81,4.81,0,0,1-1.4-.76l-2.37-2a3.78,3.78,0,0,1-1.06-1.42,4.16,4.16,0,0,1-.38-1.7v-5.9a4.26,4.26,0,0,1,1.48-3.13l2.36-1.84A4.23,4.23,0,0,1,82,44.06a4.84,4.84,0,0,1,1.55-.28ZM83.55,48a.55.55,0,0,0-.18,0l-.18.08L82.11,49c-.26.22-.52.42-.76.6l-.4.32v.8H97v-.6l0,0s-.16-.14-.4-.34l-.78-.66L95,48.41a1.87,1.87,0,0,0-.38-.3.38.38,0,0,0-.28-.12Z"/><path class="cls-1" d="M129.94,47.57a3.69,3.69,0,0,1,.46,1.74V59.79a2,2,0,0,1-.62,1.48,2.07,2.07,0,0,1-1.5.6,2.06,2.06,0,0,1-2.09-2.08V49.48a3.8,3.8,0,0,1-.48-.35c-.21-.17-.35-.29-.4-.34s-.43-.06-.9-.1-1.3-.06-2.5-.06H110.19V59.79a2,2,0,0,1-.62,1.48,2.1,2.1,0,0,1-1.51.6A2.06,2.06,0,0,1,106,59.79V45.91a2.07,2.07,0,0,1,.6-1.53,2,2,0,0,1,1.48-.6,1.87,1.87,0,0,1,1.48.65H121.9c.88,0,1.64,0,2.26,0a12.84,12.84,0,0,1,1.61.16,6.85,6.85,0,0,1,1.14.3,3.19,3.19,0,0,1,.84.46l1,.8A4.27,4.27,0,0,1,129.94,47.57Z"/><path class="cls-1" d="M144.15,59.16a3.43,3.43,0,0,1-.72,1.07,3.51,3.51,0,0,1-1.06.72,3.37,3.37,0,0,1-3.68-.72,3.27,3.27,0,0,1-1-2.39,3.15,3.15,0,0,1,.26-1.28,3.37,3.37,0,0,1,.72-1.06,3.53,3.53,0,0,1,1.07-.72,3.33,3.33,0,0,1,1.33-.26,3.34,3.34,0,0,1,3.06,4.65Z"/><path class="cls-1" d="M155.22,61.87a2.54,2.54,0,0,1-2.69-2.37v-21a2.39,2.39,0,0,1,1.71-2.21,2.93,2.93,0,0,1,3,.6l16.45,15.78V38.35a2.71,2.71,0,0,1,5.38,0V58.8A2.39,2.39,0,0,1,177.32,61a2.94,2.94,0,0,1-3-.6L157.91,44.62V59.5A2.54,2.54,0,0,1,155.22,61.87Z"/><path class="cls-1" d="M177.8,10.31a2.76,2.76,0,0,1-2,.63H152.48V7.44h25.94V8.62A2.26,2.26,0,0,1,177.8,10.31Zm-26,17.22,3.28-7.42H150.8v-3.5h29.31v1.93a1.57,1.57,0,0,1-.48,1.06,2.28,2.28,0,0,1-1.54.51H159.57l-2.7,6.21s-.55,1-.09,1.61a2.19,2.19,0,0,0,1.54.82h15.85c.33,0,.5-.14.5-.44V27.24s-.11-1.85,1-2.45a6.63,6.63,0,0,1,2.21-.53H179v5.25Q179,32,176.16,32H155.87s-2.52,0-3.61-1C150.91,29.69,151.78,27.53,151.78,27.53Z"/><polygon class="cls-1" points="87.17 4.55 83.34 4.55 83.34 7.02 76.82 7.02 76.82 9.45 93.7 9.45 93.7 7.02 87.17 7.02 87.17 4.55"/><path class="cls-1" d="M100.41,9.45h8.09V7H98.75c-3.84,0-3.84,4-3.84,4V31.7h1.59s2.24,0,2.24-2.91v-12h3.17V31.7h3.83V16.76h2.74V14.33H98.75V10.84C98.75,9.34,100.41,9.45,100.41,9.45Z"/><path class="cls-1" d="M93.7,16.76V14.33h-3l1.11-3.95H89.84a2.05,2.05,0,0,0-2,1.45l-.7,2.5H83.34l-.69-2.5a2.06,2.06,0,0,0-2-1.45H78.75l1.1,3.95h-3v2.43h6.52v2.74H76.82v2.43h1.59L76.82,31.7h1.7A2,2,0,0,0,80.43,30l1.31-8h1.6V31.7h1.6s2.24,0,2.24-2.91V21.94h1.59l1.31,8A2,2,0,0,0,92,31.7h1.7l-1.6-9.76h1.6V19.51H87.18V16.76Z"/><path class="cls-1" d="M131.82,6.84V18.13h9.62a3.58,3.58,0,0,0,4-3.48V6.84Zm9.74,7.23a1.69,1.69,0,0,1-1.9,1.62h-4V9.28h5.91Z"/><path class="cls-1" d="M116.46,19.34V31.52h21.81c4.4,0,4.4-3.71,4.4-3.71V19.34Zm22.37,8.24s0,1.51-1.91,1.51H120.29V26.66h18.54Zm0-3.37H120.29V21.78h18.54Z"/><path class="cls-1" d="M130.61,11.72h-6.53V9.28h5.7V6.84H117.9l.68-2.46h-1.92a2,2,0,0,0-2,1.45l-1,3.45h6.53v2.44h-6.53v2.44h4.34l-4,4h4.11l4-4,4,4h4.1l-4-4h4.34Z"/><path class="cls-2" d="M31.07,0A31.07,31.07,0,0,0,0,31.07H31.07Z"/><circle class="cls-3" cx="46.61" cy="15.54" r="15.54"/><rect class="cls-4" x="31.07" y="31.07" width="31.08" height="31.07"/><path class="cls-5" d="M10.36,31.07H0A31.07,31.07,0,0,0,31.07,62.14V51.78A20.71,20.71,0,0,1,10.36,31.07Z"/></g></g></svg>
